<?xml version="1.0" encoding="UTF-8" standalone="no"?>
<svg xmlns="http://www.w3.org/2000/svg" version="1.0" width="512" height="512" viewBox="0 0 240.000000 240.000000" preserveAspectRatio="xMidYMid meet"><g transform="translate(0.000000,240.000000) scale(0.100000,-0.100000)" fill="#000000" stroke="none"><path d="M325 2225 l-25 -24 0 -251 0 -251 25 -24 24 -25 251 0 251 0 24 25 c14 13 25 36 25 50 0 14 -11 37 -25 50 -24 24 -27 25 -186 25 l-162 0 19 22 c85 95 279 209 429 250 114 31 335 31 450 -1 317 -86 560 -329 646 -646 32 -115 32 -335 0 -450 -86 -317 -329 -560 -646 -646 -115 -32 -335 -32 -450 0 -379 102 -644 424 -672 813 -4 66 -11 92 -25 108 -26 28 -81 27 -109 -3 -20 -20 -21 -29 -15 -118 20 -323 201 -630 478 -809 97 -63 199 -107 328 -143 62 -16 104 -20 240 -20 180 0 235 10 395 72 243 94 482 333 576 576 62 160 72 215 72 395 0 180 -10 235 -72 395 -94 243 -333 482 -576 576 -158 61 -216 72 -390 73 -137 0 -173 -3 -250 -23 -172 -45 -334 -129 -454 -237 l-51 -46 0 132 c0 126 -1 132 -25 155 -13 14 -36 25 -50 25 -14 0 -37 -11 -50 -25z"/><path d="M1079 1781 l-24 -19 -3 -331 -3 -331 25 -25 25 -25 326 0 326 0 24 25 c32 31 32 69 0 100 l-24 25 -276 0 -275 0 0 279 0 280 -26 20 c-33 26 -65 27 -95 2z"/></g></svg>
