<?xml version="1.0" encoding="iso-8859-1"?>
<!-- Generator: Adobe Illustrator 19.0.0, SVG Export Plug-In . SVG Version: 6.00 Build 0)  -->
<svg version="1.1" id="Capa_1" xmlns="http://www.w3.org/2000/svg" xmlns:xlink="http://www.w3.org/1999/xlink" x="0px" y="0px"
	 viewBox="0 0 512 512" style="enable-background:new 0 0 512 512;" xml:space="preserve">
<g>
	<g>
		<path d="M434.506,346.529c-20.404-35.345-62.39-49.091-98.303-36.317L273.32,201.273L376.512,22.502
			c4.142-7.175,1.683-16.349-5.492-20.49c-7.175-4.141-16.349-1.683-20.49,5.492l-94.529,163.764L161.47,7.504
			c-4.142-7.175-13.315-9.635-20.49-5.492c-7.175,4.142-9.634,13.315-5.492,20.49l103.192,178.771l-62.884,108.939
			c-35.848-12.749-77.868,0.918-98.302,36.317c-22.6,39.153-9.139,89.395,30.006,112c8.186,4.728,16.955,7.947,25.979,9.634V497
			c0,8.284,6.716,15,15,15s15-6.716,15-15V468.13c23.138-4.341,43.632-18.173,56.007-39.61
			c20.038-34.715,11.709-78.132-17.718-103.289L256,231.278l54.232,93.952c-29.427,25.157-37.756,68.574-17.718,103.289
			c22.651,39.241,72.737,52.677,111.985,30.012C443.645,435.926,457.106,385.683,434.506,346.529z M193.504,413.522
			c-14.36,24.882-46.117,33.4-71.002,19.029c-24.822-14.333-33.357-46.194-19.025-71.023c14.363-24.882,46.117-33.399,71.002-19.029
			C199.3,356.831,207.836,388.693,193.504,413.522z M389.499,432.552c-24.88,14.366-56.638,5.859-71.002-19.03
			c-14.332-24.829-5.797-56.69,19.025-71.023c24.938-14.401,56.663-5.81,71.002,19.029
			C422.856,386.357,414.321,418.218,389.499,432.552z"/>
	</g>
</g>
<g>
</g>
<g>
</g>
<g>
</g>
<g>
</g>
<g>
</g>
<g>
</g>
<g>
</g>
<g>
</g>
<g>
</g>
<g>
</g>
<g>
</g>
<g>
</g>
<g>
</g>
<g>
</g>
<g>
</g>
</svg>
